<?xml version="1.0" encoding="utf-8"?>
<!-- Generator: Adobe Illustrator 16.2.1, SVG Export Plug-In . SVG Version: 6.00 Build 0)  -->
<!DOCTYPE svg PUBLIC "-//W3C//DTD SVG 1.1//EN" "http://www.w3.org/Graphics/SVG/1.1/DTD/svg11.dtd">
<svg version="1.1" id="Lager_1" xmlns="http://www.w3.org/2000/svg" xmlns:xlink="http://www.w3.org/1999/xlink" x="0px" y="0px"
	 width="361.955px" height="361.955px" viewBox="-1.955 -3.478 361.955 361.955"
	 enable-background="new -1.955 -3.478 361.955 361.955" xml:space="preserve">
<circle fill="#F5F5F5" cx="179.022" cy="177.5" r="180.978"/>
<g>
	<g>
		<g>
			<path d="M71.81,261.729c0.367,0.459,1.646,1.855,1.889,2.092c0.78,0.773,1.718,0.67,2.597,0.289
				c0.282-0.118,0.473-0.217,0.57-0.026l0.302,0.512c0.079,0.099,0.072,0.157-0.059,0.263c-0.354,0.229-2.092,1.619-2.42,1.883
				c-0.722,0.576-1.686,1.455-2.021,1.777c-0.131,0.104-0.216,0.064-0.327-0.008l-0.407-0.374c-0.138-0.104-0.118-0.28,0.02-0.444
				c0.702-0.938,0.833-1.582,0.322-2.623c-0.485-1.012-1.22-1.93-1.613-2.422l-4.689,3.752c-0.558,0.445-0.367,0.886,0.053,1.41
				l0.682,0.853c0.079,0.099,0.065,0.217-0.065,0.321l-0.754,0.604c-0.132,0.104-0.289,0.178-0.394,0.046
				c-0.157-0.196-1.423-1.979-3.076-4.046c-1.075-1.345-2.484-2.906-2.59-3.037c-0.131-0.164-0.059-0.275,0.138-0.433l0.722-0.577
				c0.099-0.079,0.249-0.092,0.354,0.039l0.735,0.918c0.445,0.559,0.865,0.545,1.153,0.368c0.388-0.257,2.709-2.06,6.25-4.894
				l1.443-1.152c0.885-0.709,3.181-2.545,3.417-2.787c0.275-0.328,0.708-0.997,0.21-1.62l-1.023-1.278
				c-0.104-0.132-0.032-0.242,0.099-0.348l0.754-0.604c0.132-0.105,0.282-0.119,0.387,0.012c0.132,0.164,1.896,2.572,3.181,4.179
				c0.288,0.36,6.4,8.002,6.787,8.282c-0.61,0.65-2.932,3.529-3.312,3.994c-0.105,0.138-0.204,0.217-0.289,0.178l-0.734-0.381
				c-0.111-0.072-0.184-0.229-0.065-0.485c0.229-0.452,0.662-1.659,1.023-3.292c0.157-0.609-0.046-1.2-0.315-1.736
				c-0.314-0.664-2.59-3.574-2.931-4.002L71.81,261.729z"/>
			<path d="M79.61,282.749c-0.489-1.688-0.237-5.343,2.329-8.342c1.119-1.308,2.98-3.031,6.04-3.509
				c3.88-0.658,6.276,0.674,8.574,2.64c1.563,1.338,3.414,3.308,3.694,6.146c0.267,2.271-0.214,5.287-2.67,8.159
				c-1.311,1.531-2.968,2.821-5.012,3.339c-3.006,0.799-5.889,0.102-9.207-2.738C82.146,287.404,80.428,285.604,79.61,282.749z
				 M93.79,284.713c3.576-4.18,3.267-8.533,1.576-9.98c-0.606-0.519-2.023-1.51-3.576-1.181c-2.05,0.457-4.325,1.825-5.718,3.452
				c-4.34,5.073-2.802,9.153-1.43,10.326C88.248,290.415,92.316,286.436,93.79,284.713z"/>
			<path d="M106.938,290.596c0.861-1.49,2.044-3.619,2.218-4.004c0.284-0.66,0.192-1.004-0.426-1.361l-1.127-0.65
				c-0.146-0.084-0.118-0.214-0.034-0.359l0.525-0.908c0.062-0.108,0.178-0.141,0.286-0.076c0.255,0.146,2.046,1.326,4.263,2.609
				c1.454,0.84,3.625,1.949,3.879,2.096c0.146,0.084,0.14,0.179,0.035,0.359l-0.505,0.873c-0.062,0.108-0.198,0.176-0.344,0.092
				l-0.545-0.314c-1.418-0.819-1.652-0.664-2.004-0.141c-0.169,0.291-2.054,3.469-2.999,5.104l-1.156,1.999
				c-0.23,0.398-2.962,5.125-3.31,5.894c1.054,0.609,4.268,2.517,5.239,2.933c0.687,0.154,3.921-1.079,4.992-1.672
				c0.214-0.119,0.401-0.107,0.489-0.01l0.45,0.648c0.051,0.078-0.033,0.224-0.174,0.385c-0.142,0.16-3.229,3.321-3.732,3.855
				c-0.597-0.395-8.718-5.137-10.789-6.334c-0.582-0.336-1.366-0.741-2.057-1.142c-0.712-0.361-1.278-0.642-1.46-0.747
				c-0.145-0.084-0.176-0.197-0.008-0.488l0.441-0.764c0.105-0.183,0.235-0.154,0.381-0.07l1.126,0.65
				c0.654,0.378,1.171,0.24,1.375-0.028c0.337-0.582,3.435-5.773,4.233-7.155L106.938,290.596z"/>
			<path d="M130.858,304.359l0.237,0.084c0.277,0.098,0.985-0.144,1.668-0.438c1.39-0.533,6.273-3.396,6.543-3.658
				c0.271-0.261,0.239-0.806-0.235-0.974l-0.158-0.056c-0.119-0.042-0.17-0.148-0.114-0.309l0.321-0.91
				c0.056-0.157,0.148-0.17,0.307-0.11c0.198,0.068,1.938,0.815,3.324,1.305c0.792,0.279,2.101,0.607,2.339,0.688
				c0.118,0.042,0.17,0.148,0.1,0.348l-0.321,0.91c-0.056,0.158-0.137,0.264-0.335,0.192l-0.555-0.194
				c-0.356-0.126-0.871-0.308-1.855-0.165c-0.893,0.131-6.371,2.918-7.631,3.587c0.377,1.201,3.827,10.608,4.098,11.104
				c0.296,0.551,0.729,0.836,1.046,0.947l0.633,0.224c0.159,0.057,0.196,0.203,0.141,0.361l-0.308,0.871
				c-0.056,0.158-0.19,0.289-0.35,0.232c-0.237-0.083-2.334-0.956-3.799-1.474c-1.465-0.517-3.447-1.082-3.725-1.18
				c-0.197-0.069-0.234-0.217-0.165-0.414l0.293-0.832c0.042-0.119,0.163-0.21,0.321-0.153l0.198,0.069
				c0.396,0.14,0.627-0.135,0.577-0.375c-0.084-0.521-1.904-6.593-2.259-7.608c-0.191-0.468-0.466-0.697-0.664-0.769l-0.118-0.041
				l-0.434,1.228c-0.433,1.229-1.624,4.858-1.749,5.216c-0.126,0.355,0.239,0.708,0.596,0.833l0.832,0.294
				c0.158,0.056,0.21,0.163,0.14,0.359l-0.308,0.871c-0.056,0.158-0.19,0.289-0.349,0.233c-0.237-0.084-2.136-0.888-3.403-1.334
				c-1.584-0.559-3.804-1.207-3.962-1.264c-0.119-0.042-0.156-0.188-0.072-0.427l0.293-0.831c0.07-0.198,0.177-0.249,0.336-0.192
				l0.871,0.307c0.396,0.14,0.703,0.025,0.976-0.368c0.205-0.328,1.617-4.46,2.622-7.312l0.405-1.148
				c0.391-1.108,1.654-5.069,1.794-5.466c0.098-0.277,0.13-0.622-0.622-0.889l-0.713-0.25c-0.158-0.057-0.156-0.188-0.114-0.309
				l0.35-0.99c0.041-0.117,0.123-0.224,0.36-0.137c0.277,0.098,1.978,0.831,3.521,1.375c1.743,0.614,3.487,1.096,3.765,1.191
				c0.197,0.068,0.195,0.201,0.111,0.438l-0.307,0.872c-0.042,0.118-0.123,0.225-0.321,0.153l-0.792-0.279
				c-0.673-0.237-0.927-0.147-1.095,0.326c-0.168,0.476-1.363,3.615-1.643,4.407L130.858,304.359z"/>
			<path d="M157.178,310.871c1.205,0.178,2.594,0.255,2.938,0.222c0.903-0.079,1.404-0.6,1.761-1.861
				c0.065-0.16,0.113-0.195,0.279-0.172l0.908,0.178c0.166,0.023,0.278,0.126,0.212,0.285c-0.138,0.361-0.463,2.562-0.519,2.938
				c-0.135,0.913-0.2,2.22-0.238,2.766c-0.024,0.166-0.114,0.195-0.238,0.178l-0.891-0.004c-0.131,0.021-0.202-0.072-0.219-0.245
				c-0.262-1.101-0.419-1.76-1.255-2.138c-1.203-0.476-1.826-0.566-2.947-0.731l-0.202,1.37c-0.215,1.454-0.487,3.875-0.567,4.415
				c-0.271,1.827,0.999,2.143,2.577,2.375c1.828,0.271,3.032,0.447,4.349-0.418c0.369-0.2,2.099-1.855,2.839-2.553
				c0.196-0.184,0.327-0.207,0.439-0.104l0.728,0.532c0.077,0.054,0.142,0.189,0.082,0.31l-2.146,4.182
				c-0.114,0.195-0.353,0.372-0.519,0.349c-0.29-0.043-2.474-0.493-11.528-1.83c-1.578-0.233-3.881-0.445-4.379-0.521
				c-0.208-0.029-0.231-0.16-0.2-0.368l0.141-0.955c0.024-0.166,0.12-0.237,0.328-0.206l0.374,0.055
				c1.951,0.289,2.101,0.141,2.321-1.354l1.411-9.554c0.196-1.329,0.414-2.229,0.45-3.626c0.005-0.891-0.22-1.094-1.882-1.339
				l-0.415-0.062c-0.124-0.019-0.153-0.107-0.123-0.314l0.153-1.039c0.013-0.083,0.072-0.201,0.238-0.177
				c0.623,0.092,2.889,0.554,4.675,0.816l9.31,1.334c0.416,0.062,0.968,0.058,1.134,0.081c0.083,0.014,0.154,0.108,0.164,0.618
				c0.027,0.388,0.663,4.13,0.703,4.435c0.017,0.172,0.005,0.255-0.085,0.284l-0.707,0.191c-0.179,0.06-0.297-0.001-0.396-0.186
				c-0.142-0.19-1.875-2.823-2.531-3.558c-0.401-0.44-1.041-0.706-1.457-0.768l-4.058-0.685L157.178,310.871z"/>
			<path d="M186.584,312.407c0.193,4.403,0.332,7.55,0.389,7.884c0.113,0.668,0.385,1.076,0.93,1.052l1.636-0.07
				c0.21-0.011,0.3,0.111,0.312,0.363l0.041,0.923c0.004,0.126-0.074,0.256-0.283,0.266c-0.293,0.013-2.899,0.001-4.998,0.094
				c-1.594,0.07-4.313,0.316-4.649,0.331c-0.252,0.011-0.341-0.111-0.354-0.405l-0.035-0.839c-0.01-0.21,0.07-0.297,0.238-0.305
				l1.594-0.07c0.63-0.026,0.949-0.378,0.978-0.715c0.056-1.6-0.042-3.823-0.151-6.298l-0.392-8.894
				c-0.881,0.039-2.979,0.09-4.513,0.577c-1.02,0.717-1.842,2.1-2.339,3.213c-0.076,0.171-0.196,0.304-0.366,0.27l-0.979-0.294
				c-0.214-0.074-0.221-0.242-0.187-0.412c0.253-0.937,1.11-4.377,1.245-5.14c0.07-0.298,0.191-0.43,0.358-0.438
				c0.126-0.005,0.212,0.033,0.342,0.111l0.347,0.236c0.562,0.354,0.857,0.383,1.656,0.391c1.472,0.019,3.07,0.032,5.501-0.074
				l2.099-0.093c1.679-0.073,4.19-0.27,5.907-0.429c0.669-0.07,1.045-0.13,1.492-0.443l0.488-0.357
				c0.123-0.09,0.246-0.137,0.33-0.141c0.168-0.008,0.258,0.114,0.418,0.906c0.11,0.583,0.956,3.571,1.217,4.694
				c0.049,0.166-0.031,0.254-0.195,0.346l-0.913,0.251c-0.248,0.095-0.376,0.059-0.47-0.147c-0.549-1.027-1.323-2.38-2.233-3.012
				c-1.065-0.332-3.919-0.248-4.758-0.211L186.584,312.407z"/>
			<path d="M204.719,314.426c0.133,0.015,0.314,0.06,0.329,0.313c0.11,0.491,0.388,1.333,1.308,2.546
				c0.862,0.967,2.399,1.479,4.324,1.046c1.353-0.305,2.84-1.717,2.452-3.438c-0.426-1.884-1.972-2.438-4.34-2.636
				c-0.884-0.102-3.035-0.477-4.495-1.224c-1.609-0.841-2.352-1.836-2.915-4.334c-0.313-1.394,0.331-2.916,1.161-4.007
				c0.83-1.093,2.426-1.84,4.062-2.209c1.64-0.37,2.563-0.277,3.11-0.144c0.466,0.153,0.679,0.147,0.716-0.075l0.098-0.323
				c0.056-0.142,0.178-0.17,0.547-0.253c0.408-0.093,0.486,0.062,0.533,0.268c0.306,1.352,1.274,3.931,1.445,4.495
				c0.027,0.122,0.006,0.214-0.109,0.282l-0.781,0.349c-0.072,0.06-0.245,0.056-0.323-0.099c-0.284-0.496-1.008-1.797-1.999-2.562
				c-0.712-0.485-1.705-0.691-3.303-0.331c-2.211,0.5-2.374,2.258-2.207,2.995c0.12,0.532,0.212,0.942,0.68,1.482
				c0.575,0.645,1.641,0.79,3.31,0.932c2.03,0.229,3.647,0.338,4.985,1.112c1.377,0.765,2.142,1.669,2.705,4.167
				c0.693,3.07-0.722,6.146-5.145,7.145c-2.09,0.472-3.68,0.099-4.788-0.426c-0.333-0.141-0.588-0.126-0.597,0.221l-0.049,0.355
				c-0.035,0.223-0.222,0.352-0.608,0.353c-0.347-0.008-0.507-0.144-0.511-0.357c-0.137-1.175-0.59-4.517-0.696-5.181
				c0.004-0.173,0.058-0.313,0.222-0.352L204.719,314.426z"/>
			<path d="M247.771,293.189c0.365-0.207,0.471-0.361,0.307-0.654l-0.412-0.73c-0.289-0.514-1.969-3.326-2.195-3.729
				c-0.35-0.622-0.941-0.818-1.418-0.551l-0.842,0.474c-0.184,0.103-0.297,0.071-0.38-0.075l-0.494-0.878
				c-0.104-0.185-0.071-0.298,0.112-0.399c0.402-0.228,2.732-1.396,3.867-2.033c1.17-0.659,3.304-2.006,3.597-2.17
				s0.392-0.075,0.556,0.218l0.393,0.694c0.082,0.146,0.106,0.276-0.223,0.463l-0.951,0.535c-0.586,0.33-0.578,0.855-0.33,1.295
				c0.309,0.549,2.353,4.266,2.826,5.105l0.452,0.807c0.433,0.769,2.941,5.139,3.106,5.432c0.84,1.406,1.266,1.647,2.033,1.216
				l1.099-0.618c0.146-0.082,0.244,0.007,0.327,0.153l0.474,0.842c0.103,0.184,0.071,0.297-0.147,0.421
				c-0.33,0.187-2.258,1.126-3.867,2.032c-1.208,0.68-3.342,2.025-3.928,2.355c-0.256,0.144-0.392,0.074-0.494-0.107l-0.473-0.842
				c-0.084-0.146-0.052-0.261,0.131-0.363l1.209-0.681c0.549-0.31,0.41-0.811-0.043-1.614c-0.287-0.513-2.172-4.029-2.459-4.542
				l-0.412-0.73c-0.146-0.258-0.312-0.211-0.715,0.016l-6.916,3.894c-0.291,0.165-0.345,0.242-0.242,0.426l0.187,0.329
				c0.351,0.622,2.405,4.188,2.776,4.847c0.675,1.113,1.055,1.188,1.566,0.899l0.879-0.494c0.146-0.082,0.26-0.05,0.363,0.134
				l0.475,0.842c0.082,0.146,0.069,0.297-0.076,0.38c-0.438,0.247-2.551,1.291-3.721,1.95c-1.207,0.68-3.523,2.128-4.037,2.416
				c-0.183,0.104-0.297,0.07-0.42-0.148l-0.475-0.841c-0.104-0.184-0.051-0.261,0.169-0.385l0.988-0.558
				c0.987-0.556,0.694-1.161,0.319-1.914c-0.231-0.495-2.75-5.055-3.078-5.64l-0.577-1.023c-0.824-1.465-2.505-4.276-2.689-4.606
				c-0.598-1.062-1.186-1.163-1.844-0.793l-1.024,0.577c-0.22,0.124-0.334,0.092-0.438-0.092l-0.453-0.806
				c-0.123-0.22-0.128-0.312,0.128-0.456c0.403-0.228,2.843-1.457,4.087-2.156c1.354-0.764,3.378-2.047,3.78-2.272
				c0.22-0.124,0.334-0.092,0.54,0.272l0.371,0.66c0.103,0.183,0.107,0.275-0.148,0.42l-0.806,0.453
				c-0.622,0.352-0.761,0.959-0.474,1.471c0.187,0.33,1.858,3.388,2.437,4.412l0.165,0.293c0.104,0.184,0.236,0.252,0.457,0.127
				L247.771,293.189z"/>
			<path d="M258.109,279.744c-0.502-0.564-1.018-0.895-1.961-0.061l-0.565,0.502c-0.126,0.11-0.244,0.104-0.354-0.021l-0.725-0.818
				c-0.084-0.094-0.076-0.213,0.051-0.324c0.188-0.168,2.283-1.854,3.824-3.219c1.227-1.086,2.999-2.822,3.188-2.986
				c0.158-0.141,0.275-0.133,0.416,0.024l0.668,0.755c0.082,0.094,0.104,0.244-0.021,0.355l-0.439,0.39
				c-1.069,0.946-1.137,1.567-0.946,1.847c0.3,0.465,1.276,1.506,2.307,2.67l1.113,1.258c0.919,1.037,3.208,3.498,3.599,3.938
				c0.811,0.854,1.861,1.661,2.949,1.877c1.502,0.239,2.885-0.479,3.734-1.23c0.943-0.835,1.576-1.956,1.677-3.11
				c0.149-1.479-0.688-2.868-1.832-4.099l-3.876-4.254c-1.396-1.512-2.289-2.459-2.658-2.75c-0.535-0.479-1.129-0.516-2.136,0.375
				l-0.347,0.308c-0.125,0.111-0.271,0.072-0.41-0.085l-0.641-0.723c-0.084-0.096-0.104-0.245,0.021-0.357
				c0.157-0.14,2.002-1.604,2.978-2.467c0.85-0.751,2.023-1.959,2.213-2.124c0.156-0.14,0.303-0.101,0.441,0.058l0.611,0.691
				c0.111,0.125,0.133,0.275,0.008,0.387l-0.283,0.251c-1.164,1.029-0.781,1.589-0.568,2.019c0.158,0.308,2.307,2.67,2.611,3.016
				c0.251,0.283,3.277,3.829,3.941,4.645c1.32,1.746,2.021,3.426,1.693,5.397c-0.182,1.507-1.082,3.088-3.22,4.979
				c-1.51,1.336-2.628,2.102-3.603,2.459c-1.916,0.687-3.391,0.478-4.85-0.476c-1.027-0.717-2.318-1.985-4.685-4.659
				L258.109,279.744z"/>
			<path d="M284.562,267.809c0.11-0.072,0.281-0.151,0.453,0.039c0.394,0.312,1.135,0.797,2.611,1.166
				c1.279,0.215,2.8-0.348,4.029-1.892c0.861-1.084,1.14-3.117-0.24-4.216c-1.511-1.203-3.062-0.668-5.034,0.66
				c-0.754,0.475-2.666,1.527-4.271,1.859c-1.783,0.352-2.984,0.04-4.988-1.556c-1.117-0.89-1.566-2.481-1.604-3.853
				c-0.035-1.371,0.74-2.953,1.787-4.268c1.047-1.312,1.825-1.82,2.336-2.059c0.459-0.172,0.623-0.31,0.512-0.506l-0.127-0.314
				c-0.045-0.145,0.033-0.242,0.269-0.538c0.263-0.328,0.419-0.257,0.584-0.126c1.084,0.863,3.454,2.268,3.94,2.602
				c0.099,0.077,0.139,0.164,0.093,0.287l-0.392,0.762c-0.021,0.093-0.158,0.197-0.314,0.127c-0.532-0.209-1.91-0.771-3.163-0.748
				c-0.858,0.068-1.763,0.529-2.782,1.812c-1.412,1.772-0.438,3.247,0.152,3.718c0.428,0.34,0.756,0.603,1.458,0.73
				c0.853,0.143,1.776-0.41,3.164-1.346c1.729-1.092,3.058-2.021,4.585-2.254c1.554-0.267,2.715-0.039,4.72,1.557
				c2.464,1.962,3.284,5.245,0.46,8.794c-1.334,1.675-2.808,2.38-4.001,2.665c-0.347,0.1-0.536,0.271-0.325,0.545l0.185,0.309
				c0.11,0.196,0.047,0.412-0.255,0.655c-0.274,0.211-0.484,0.205-0.622,0.041c-0.843-0.83-3.287-3.151-3.786-3.604
				c-0.105-0.137-0.15-0.28-0.047-0.412L284.562,267.809z"/>
		</g>
		<g>
			<path d="M109.108,65.942c0.13-0.026,0.317-0.037,0.406,0.202c0.251,0.437,0.763,1.16,1.998,2.048
				c1.111,0.669,2.73,0.708,4.441-0.275c1.202-0.69,2.208-2.478,1.33-4.007c-0.962-1.675-2.602-1.75-4.923-1.239
				c-0.875,0.163-3.041,0.438-4.655,0.155c-1.787-0.33-2.788-1.062-4.063-3.283c-0.711-1.238-0.542-2.883-0.071-4.17
				c0.472-1.288,1.776-2.472,3.232-3.309c1.456-0.836,2.367-1.02,2.93-1.053c0.489,0.01,0.692-0.059,0.66-0.282v-0.338
				c0.01-0.151,0.119-0.214,0.446-0.402c0.364-0.209,0.484-0.084,0.589,0.098c0.689,1.201,2.376,3.38,2.705,3.869
				c0.063,0.109,0.068,0.203-0.02,0.302l-0.645,0.564c-0.052,0.078-0.219,0.125-0.339,0c-0.417-0.39-1.492-1.418-2.665-1.858
				c-0.823-0.253-1.833-0.158-3.253,0.657c-1.966,1.129-1.604,2.857-1.227,3.512c0.271,0.474,0.48,0.837,1.086,1.216
				c0.74,0.446,1.802,0.272,3.437-0.085c2.009-0.379,3.586-0.752,5.092-0.406c1.542,0.325,2.538,0.963,3.812,3.184
				c1.568,2.73,1.122,6.085-2.81,8.343c-1.857,1.066-3.486,1.179-4.7,1.004c-0.359-0.036-0.599,0.054-0.505,0.387l0.059,0.354
				c0.031,0.224-0.108,0.401-0.479,0.516c-0.333,0.095-0.525,0.012-0.594-0.191c-0.477-1.082-1.894-4.141-2.191-4.744
				c-0.048-0.167-0.037-0.318,0.108-0.401L109.108,65.942z"/>
			<path d="M130.726,50.958l0.237-0.084c0.277-0.098,0.677-0.73,1.023-1.387c0.746-1.289,2.745-6.586,2.792-6.958
				c0.046-0.373-0.32-0.778-0.796-0.609l-0.158,0.056c-0.118,0.042-0.226-0.009-0.282-0.167l-0.322-0.911
				c-0.056-0.158,0.009-0.226,0.168-0.279c0.197-0.07,2.021-0.583,3.406-1.073c0.792-0.281,2.016-0.848,2.254-0.935
				c0.118-0.042,0.226,0.009,0.296,0.207l0.322,0.91c0.056,0.159,0.059,0.291-0.14,0.361l-0.554,0.196
				c-0.356,0.126-0.871,0.309-1.548,1.039c-0.611,0.662-3.123,6.274-3.683,7.586c1.049,0.698,9.646,5.849,10.167,6.065
				c0.576,0.241,1.093,0.192,1.409,0.08l0.634-0.224c0.158-0.056,0.279,0.034,0.336,0.193l0.309,0.871
				c0.056,0.158,0.032,0.345-0.126,0.401c-0.237,0.084-2.417,0.723-3.881,1.241c-1.465,0.519-3.362,1.325-3.64,1.423
				c-0.197,0.07-0.318-0.021-0.389-0.218l-0.295-0.831c-0.042-0.119-0.005-0.266,0.153-0.322l0.198-0.07
				c0.396-0.14,0.402-0.499,0.214-0.655c-0.393-0.351-5.626-3.932-6.539-4.499c-0.443-0.244-0.802-0.251-1-0.181l-0.119,0.042
				l0.436,1.227c0.435,1.227,1.79,4.801,1.916,5.157s0.632,0.4,0.987,0.273l0.832-0.294c0.158-0.056,0.265-0.005,0.335,0.193
				l0.309,0.871c0.057,0.158,0.033,0.345-0.125,0.4c-0.237,0.084-2.219,0.653-3.485,1.103c-1.584,0.561-3.719,1.451-3.877,1.507
				c-0.119,0.042-0.24-0.048-0.324-0.286l-0.294-0.831c-0.07-0.198-0.02-0.305,0.139-0.361l0.871-0.309
				c0.396-0.14,0.563-0.422,0.527-0.899c-0.047-0.384-1.545-4.487-2.555-7.337l-0.406-1.147c-0.393-1.108-1.899-4.985-2.04-5.381
				c-0.098-0.277-0.289-0.565-1.041-0.299l-0.713,0.252c-0.158,0.056-0.24-0.048-0.282-0.167l-0.351-0.99
				c-0.042-0.119-0.044-0.251,0.193-0.333c0.277-0.098,2.061-0.596,3.604-1.143c1.741-0.617,3.401-1.339,3.679-1.44
				c0.197-0.07,0.279,0.035,0.363,0.272l0.309,0.871c0.042,0.119,0.044,0.251-0.153,0.322l-0.792,0.28
				c-0.673,0.238-0.814,0.467-0.646,0.942c0.169,0.475,1.211,3.669,1.491,4.461L130.726,50.958z"/>
			<path d="M157.637,46.915c-0.146,0.526-1.026,4.019-1.095,4.493c-0.106,0.859,0.169,1.375,1.003,1.272l0.833-0.103
				c0.209-0.025,0.308,0.089,0.328,0.256l0.118,0.958c0.021,0.167-0.006,0.297-0.214,0.322c-0.334,0.042-2.558,0.189-3.225,0.271
				c-0.792,0.098-2.859,0.48-3.234,0.526c-0.167,0.021-0.192-0.188-0.219-0.396l-0.103-0.833c-0.021-0.167,0.047-0.302,0.214-0.323
				l0.5-0.062c0.5-0.062,1.162-0.524,1.522-1.034c0.251-0.369,1.884-5.647,2.585-7.85c0.22-0.619,1.979-6.59,2.142-7.329
				c0.053-0.261,0.1-0.562-0.082-0.667c-0.183-0.104-0.369-0.25-0.396-0.459c-0.03-0.25,0.204-0.406,0.569-0.536
				c1.386-0.425,2.324-1.048,2.736-1.48c0.146-0.187,0.297-0.333,0.589-0.369c0.25-0.031,0.354,0.125,0.515,0.402
				c0.789,1.595,3.608,7.297,4.314,8.902c0.882,2.006,3.28,6.703,3.618,7.042c0.635,0.683,1.39,0.971,2.098,0.883l0.708-0.087
				c0.167-0.021,0.308,0.089,0.323,0.214l0.113,0.917c0.025,0.208-0.037,0.385-0.246,0.411c-0.5,0.062-2.724,0.209-5.058,0.497
				c-0.792,0.098-3.235,0.526-3.776,0.593c-0.292,0.036-0.359-0.167-0.385-0.375l-0.104-0.833c-0.021-0.167,0.09-0.307,0.215-0.322
				l0.708-0.087c0.583-0.072,0.662-0.463,0.569-0.874c-0.213-0.693-1.749-3.888-2.144-4.686L157.637,46.915z M163.166,44.751
				c-0.238-0.563-2.376-5.545-2.604-6.024c-0.177-0.401-0.28-0.558-0.405-0.542c-0.167,0.021-0.229,0.198-0.355,0.552
				c-0.084,0.349-1.562,6.2-1.719,6.643L163.166,44.751z"/>
			<path d="M187.755,43.089c0.587,0.043,2.479,0.057,2.818,0.04c1.098-0.045,1.659-0.803,1.979-1.706
				c0.105-0.287,0.162-0.493,0.369-0.436l0.579,0.127c0.126,0.009,0.165,0.054,0.152,0.222c-0.073,0.416-0.237,2.635-0.269,3.053
				c-0.067,0.921-0.081,2.226-0.073,2.689c-0.012,0.167-0.099,0.203-0.228,0.235l-0.551,0.043c-0.171,0.03-0.287-0.105-0.313-0.318
				c-0.209-1.152-0.591-1.686-1.701-2.021c-1.07-0.332-2.244-0.418-2.871-0.465l-0.442,5.987c-0.054,0.712,0.397,0.872,1.067,0.921
				l1.09,0.081c0.125,0.009,0.203,0.099,0.189,0.267l-0.07,0.963c-0.014,0.167-0.066,0.332-0.234,0.319
				c-0.251-0.019-2.419-0.305-5.057-0.5c-1.717-0.127-3.819-0.156-3.987-0.169c-0.209-0.016-0.241-0.144-0.224-0.396l0.067-0.921
				c0.011-0.125,0.103-0.245,0.271-0.233l1.172,0.087c0.713,0.053,0.988-0.264,1.056-0.596c0.076-0.458,0.335-3.385,0.669-7.907
				l0.137-1.842c0.084-1.13,0.301-4.062,0.283-4.399c-0.053-0.425-0.248-1.197-1.044-1.256l-1.633-0.121
				c-0.168-0.012-0.2-0.141-0.188-0.309l0.071-0.963c0.013-0.167,0.104-0.287,0.272-0.274c0.209,0.016,3.173,0.361,5.225,0.513
				c0.461,0.034,10.216,0.756,10.688,0.665c0.061,0.888,0.588,4.548,0.672,5.144c0.029,0.17,0.02,0.296-0.067,0.332l-0.778,0.279
				c-0.127,0.033-0.293-0.021-0.398-0.282c-0.176-0.476-0.766-1.614-1.717-2.99c-0.34-0.53-0.909-0.783-1.486-0.952
				c-0.699-0.22-4.381-0.535-4.926-0.575L187.755,43.089z"/>
			<path d="M217.857,47.938c-1.217,4.238-2.086,7.265-2.137,7.599c-0.104,0.669,0.021,1.142,0.545,1.292l1.574,0.452
				c0.202,0.058,0.248,0.202,0.18,0.444l-0.256,0.888c-0.035,0.121-0.149,0.219-0.353,0.161c-0.282-0.081-2.75-0.92-4.769-1.499
				c-1.533-0.44-4.191-1.072-4.515-1.165c-0.242-0.069-0.288-0.214-0.207-0.496l0.231-0.807c0.058-0.202,0.162-0.259,0.322-0.213
				l1.534,0.44c0.604,0.174,1.021-0.057,1.153-0.368c0.562-1.499,1.175-3.638,1.857-6.019l2.455-8.556
				c-0.848-0.243-2.854-0.863-4.463-0.888c-1.193,0.356-2.412,1.405-3.238,2.304c-0.127,0.138-0.282,0.225-0.433,0.138l-0.836-0.589
				c-0.179-0.139-0.132-0.3-0.045-0.45c0.537-0.807,2.442-3.798,2.813-4.479c0.162-0.259,0.316-0.345,0.479-0.299
				c0.121,0.035,0.189,0.099,0.288,0.214l0.253,0.335c0.421,0.514,0.691,0.635,1.446,0.896c1.39,0.486,2.899,1.007,5.241,1.679
				l2.018,0.579c1.615,0.463,4.061,1.077,5.736,1.471c0.658,0.145,1.033,0.209,1.559,0.054l0.576-0.184
				c0.145-0.046,0.277-0.052,0.357-0.028c0.162,0.046,0.207,0.19,0.108,0.992c-0.082,0.588-0.229,3.691-0.341,4.838
				c-0.006,0.173-0.109,0.23-0.294,0.265l-0.946-0.053c-0.265,0.011-0.374-0.063-0.396-0.289c-0.194-1.148-0.498-2.677-1.162-3.566
				c-0.903-0.653-3.637-1.48-4.443-1.712L217.857,47.938z"/>
			<path d="M232.557,63.114c-0.834-1.548-1.355-5.172,0.521-8.643c0.818-1.514,2.275-3.589,5.166-4.699
				c3.654-1.46,6.277-0.662,8.936,0.776c1.811,0.979,4.033,2.515,4.903,5.229c0.737,2.166,0.903,5.214-0.896,8.537
				c-0.959,1.772-2.307,3.382-4.195,4.317c-2.77,1.414-5.735,1.337-9.575-0.74C236.014,67.132,233.955,65.732,232.557,63.114z
				 M246.828,62.052c2.617-4.837,1.398-9.028-0.559-10.086c-0.701-0.379-2.295-1.051-3.744-0.402
				c-1.906,0.878-3.844,2.694-4.861,4.577c-3.176,5.871-0.814,9.535,0.773,10.394C242.609,68.792,245.75,64.046,246.828,62.052z
				 M244.268,43.579c0.319-0.591,1.438-1.513,2.916-0.714c0.85,0.459,1.377,1.604,0.696,2.859c-0.56,1.034-1.769,1.239-2.653,0.76
				C244.561,46.125,243.469,45.056,244.268,43.579z M250.508,46.955c0.319-0.591,1.438-1.513,2.953-0.694
				c0.812,0.439,1.339,1.583,0.732,2.879c-0.707,0.954-1.842,1.199-2.69,0.74C250.839,49.52,249.709,48.432,250.508,46.955z"/>
		</g>
	</g>
	<path d="M338.422,197.555c-4.374,35.489-20.33,68.313-46.016,94c-30.467,30.465-70.971,47.243-114.055,47.243
		c-43.084,0-83.588-16.778-114.055-47.243c-26.279-26.279-42.362-60.029-46.29-96.461l4.663,0.309
		c8.886,78.113,75.191,138.803,155.682,138.803c79.75,0,145.586-59.576,155.433-136.65H338.422z M178.352,66.574
		c-49.646,0-91.78,32.786-105.888,77.844l1.802-1.296C88.72,99.47,129.914,67.886,178.352,67.886
		c41.002,0,76.811,22.631,95.607,56.054l1.152-0.626C256.091,89.483,219.85,66.574,178.352,66.574z M22.394,162.176
		C30.096,82.823,96.978,20.795,178.352,20.795c86.545,0,156.705,70.159,156.705,156.704c0,0.294-0.01,0.585-0.011,0.879l4.593-0.013
		c0.002-0.289,0.012-0.577,0.012-0.866c0-43.083-16.778-83.589-47.243-114.054c-30.468-30.465-70.972-47.243-114.056-47.243
		c-43.083,0-83.588,16.778-114.055,47.243c-26.963,26.963-43.194,61.792-46.573,99.311L22.394,162.176z M178.352,288.426
		c47.047,0,87.344-29.443,103.44-70.871h-1.403c-16.029,40.688-55.725,69.559-102.037,69.559
		c-47.973,0-88.841-30.979-103.664-73.981l-1.403-0.03C88.151,256.855,129.634,288.426,178.352,288.426z M178.352,62.835
		c-53.011,0-97.728,36.163-110.795,85.112l2.554-1.836c13.625-46.915,56.99-81.307,108.242-81.307
		c42.168,0,78.994,23.284,98.314,57.666l1.729-0.938C258.741,86.536,221.266,62.835,178.352,62.835z M178.352,292.164
		c49.144,0,91.157-31.078,107.439-74.609h-2.105c-16.188,42.424-57.295,72.641-105.334,72.641
		c-49.72,0-92.018-32.366-106.941-77.135l-2.085-0.047C84.311,258.908,127.517,292.164,178.352,292.164z"/>
	<g>
		<g>
			<path d="M122.807,106.015h1.126v5.322h0.103l5.852-5.322h1.552l-6.106,5.527l6.448,6.55h-1.621l-6.124-6.244h-0.103v6.244h-1.126
				L122.807,106.015L122.807,106.015z"/>
			<path d="M141.863,113.47c0,0.648-0.074,1.27-0.222,1.859c-0.148,0.592-0.396,1.115-0.742,1.569
				c-0.348,0.455-0.802,0.819-1.365,1.092c-0.562,0.273-1.253,0.41-2.072,0.41c-0.818,0-1.51-0.137-2.072-0.41
				c-0.563-0.273-1.019-0.637-1.365-1.092c-0.347-0.455-0.594-0.978-0.742-1.569c-0.147-0.591-0.222-1.211-0.222-1.859v-7.455h1.126
				v7.165c0,0.433,0.04,0.893,0.119,1.382c0.08,0.489,0.236,0.944,0.47,1.365c0.232,0.421,0.562,0.768,0.989,1.041
				c0.427,0.273,0.992,0.41,1.697,0.41s1.271-0.137,1.697-0.41c0.426-0.273,0.756-0.62,0.989-1.041
				c0.233-0.42,0.39-0.875,0.47-1.365c0.079-0.489,0.119-0.949,0.119-1.382v-7.165h1.126V113.47z"/>
			<path d="M144.872,106.015h1.126v11.054h5.63v1.023h-6.756V106.015L144.872,106.015z"/>
			<path d="M154.678,107.039h-4.128v-1.023h9.382v1.023h-4.128v11.054h-1.126L154.678,107.039L154.678,107.039z"/>
			<path d="M170.39,113.47c0,0.648-0.074,1.27-0.222,1.859c-0.148,0.592-0.396,1.115-0.742,1.569
				c-0.348,0.455-0.802,0.819-1.365,1.092c-0.562,0.273-1.253,0.41-2.072,0.41c-0.818,0-1.51-0.137-2.072-0.41
				c-0.563-0.273-1.019-0.637-1.365-1.092c-0.347-0.455-0.594-0.978-0.742-1.569c-0.147-0.591-0.222-1.211-0.222-1.859v-7.455h1.126
				v7.165c0,0.433,0.04,0.893,0.119,1.382c0.08,0.489,0.236,0.944,0.47,1.365c0.232,0.421,0.562,0.768,0.989,1.041
				c0.427,0.273,0.992,0.41,1.697,0.41c0.705,0,1.271-0.137,1.697-0.41c0.426-0.273,0.756-0.62,0.989-1.041
				c0.233-0.42,0.39-0.875,0.47-1.365c0.079-0.489,0.119-0.949,0.119-1.382v-7.165h1.126V113.47z"/>
			<path d="M173.398,106.015h3.173c0.159,0,0.376,0.006,0.648,0.017c0.273,0.012,0.568,0.046,0.889,0.103
				c0.316,0.057,0.642,0.148,0.972,0.273s0.626,0.307,0.888,0.546c0.262,0.239,0.479,0.54,0.647,0.904
				c0.171,0.364,0.256,0.808,0.256,1.331c0,0.58-0.101,1.058-0.298,1.433c-0.199,0.375-0.449,0.68-0.752,0.913
				c-0.301,0.233-0.633,0.407-0.997,0.521c-0.364,0.114-0.712,0.193-1.04,0.239l3.514,5.8h-1.279l-3.395-5.73h-2.099v5.73h-1.126
				V106.015L173.398,106.015z M174.524,111.337h2.389c0.591,0,1.071-0.074,1.44-0.222c0.369-0.147,0.656-0.33,0.861-0.546
				c0.205-0.216,0.344-0.449,0.418-0.699s0.11-0.478,0.11-0.683s-0.036-0.432-0.11-0.682s-0.213-0.483-0.418-0.699
				c-0.205-0.216-0.492-0.398-0.861-0.546c-0.37-0.148-0.851-0.222-1.44-0.222h-2.389V111.337z"/>
			<path d="M183.367,106.015h1.126v5.322h6.756v-5.322h1.126v12.078h-1.126v-5.731h-6.756v5.731h-1.126V106.015z"/>
			<path d="M204.186,113.47c0,0.648-0.074,1.27-0.222,1.859c-0.147,0.592-0.396,1.115-0.741,1.569
				c-0.349,0.455-0.803,0.819-1.365,1.092c-0.562,0.273-1.254,0.41-2.072,0.41s-1.51-0.137-2.072-0.41
				c-0.562-0.273-1.02-0.637-1.365-1.092c-0.347-0.455-0.594-0.978-0.742-1.569c-0.146-0.591-0.222-1.211-0.222-1.859v-7.455h1.126
				v7.165c0,0.433,0.04,0.893,0.119,1.382c0.08,0.489,0.236,0.944,0.471,1.365c0.231,0.421,0.562,0.768,0.988,1.041
				c0.428,0.273,0.992,0.41,1.697,0.41s1.271-0.137,1.697-0.41c0.426-0.273,0.756-0.62,0.988-1.041
				c0.233-0.42,0.391-0.875,0.471-1.365c0.078-0.489,0.119-0.949,0.119-1.382v-7.165h1.125V113.47z"/>
			<path d="M207.346,115.858c0.297,0.512,0.68,0.893,1.151,1.143s1.01,0.375,1.612,0.375c0.375,0,0.728-0.057,1.058-0.171
				c0.33-0.113,0.617-0.273,0.86-0.478c0.246-0.205,0.438-0.452,0.58-0.742c0.143-0.29,0.215-0.617,0.215-0.98
				c0-0.421-0.09-0.768-0.266-1.041c-0.177-0.272-0.412-0.497-0.707-0.673c-0.297-0.176-0.629-0.327-0.998-0.452
				c-0.371-0.125-0.752-0.25-1.144-0.375c-0.394-0.125-0.772-0.267-1.144-0.426c-0.369-0.159-0.703-0.367-0.998-0.623
				c-0.297-0.256-0.531-0.577-0.709-0.964c-0.176-0.387-0.264-0.864-0.264-1.433c0-0.534,0.104-1.009,0.315-1.424
				c0.21-0.415,0.493-0.762,0.853-1.041c0.359-0.279,0.771-0.489,1.237-0.631c0.466-0.142,0.955-0.213,1.467-0.213
				c0.659,0,1.271,0.117,1.834,0.35c0.562,0.233,1.05,0.623,1.458,1.168l-0.972,0.699c-0.285-0.398-0.617-0.696-0.998-0.896
				c-0.382-0.199-0.833-0.298-1.356-0.298c-0.363,0-0.711,0.048-1.041,0.145c-0.328,0.097-0.615,0.239-0.861,0.426
				c-0.243,0.188-0.439,0.424-0.588,0.708c-0.147,0.284-0.222,0.62-0.222,1.006c0,0.603,0.153,1.066,0.46,1.39
				c0.309,0.324,0.691,0.58,1.151,0.768c0.461,0.188,0.961,0.353,1.501,0.495s1.041,0.333,1.502,0.571
				c0.46,0.239,0.844,0.571,1.15,0.998c0.308,0.426,0.461,1.015,0.461,1.766c0,0.546-0.103,1.029-0.307,1.45
				c-0.205,0.421-0.48,0.776-0.828,1.066s-0.748,0.509-1.203,0.657s-0.926,0.222-1.416,0.222c-0.795,0-1.528-0.14-2.199-0.418
				c-0.672-0.279-1.245-0.748-1.723-1.407L207.346,115.858z"/>
			<path d="M216.279,106.015h7.387v1.023h-6.262v4.299h5.869v1.024h-5.869v4.708h6.535v1.023h-7.66V106.015z"/>
			<path d="M229.271,107.039h-4.129v-1.023h9.383v1.023h-4.129v11.054h-1.125V107.039z"/>
		</g>
		<g>
			<path d="M130.133,249.161c-0.705,0.397-1.437,0.68-2.192,0.845c-0.757,0.165-1.526,0.247-2.312,0.247
				c-0.921,0-1.766-0.155-2.533-0.469c-0.767-0.313-1.424-0.751-1.97-1.313c-0.546-0.562-0.973-1.232-1.279-2.013
				c-0.308-0.778-0.461-1.629-0.461-2.551c0-0.921,0.153-1.769,0.461-2.541c0.307-0.773,0.733-1.441,1.279-2.005
				c0.546-0.562,1.202-1.004,1.97-1.322c0.768-0.318,1.612-0.479,2.533-0.479c1.797,0,3.247,0.559,4.35,1.672l-0.818,0.854
				c-0.182-0.216-0.406-0.417-0.674-0.605c-0.268-0.188-0.558-0.347-0.87-0.478c-0.312-0.13-0.64-0.231-0.98-0.308
				c-0.342-0.073-0.677-0.11-1.007-0.11c-0.784,0-1.492,0.138-2.124,0.41c-0.631,0.272-1.168,0.647-1.611,1.125
				c-0.444,0.479-0.785,1.041-1.023,1.688c-0.239,0.648-0.358,1.349-0.358,2.099c0,0.751,0.119,1.45,0.358,2.099
				c0.238,0.648,0.579,1.211,1.023,1.688c0.443,0.479,0.98,0.854,1.611,1.127c0.632,0.272,1.34,0.408,2.124,0.408
				c0.648,0,1.257-0.051,1.825-0.152s1.086-0.29,1.553-0.562v-4.061h-2.9v-1.023h4.026L130.133,249.161L130.133,249.161z"/>
			<path d="M133.186,237.869h3.173c0.159,0,0.376,0.006,0.648,0.017c0.273,0.013,0.568,0.046,0.888,0.104
				c0.317,0.057,0.642,0.146,0.972,0.271c0.33,0.126,0.626,0.308,0.888,0.546c0.261,0.239,0.478,0.541,0.647,0.904
				c0.171,0.364,0.256,0.809,0.256,1.331c0,0.58-0.1,1.058-0.298,1.433c-0.199,0.375-0.449,0.68-0.751,0.914
				c-0.302,0.231-0.634,0.405-0.998,0.52c-0.364,0.113-0.711,0.193-1.04,0.238l3.514,5.801h-1.279l-3.395-5.731h-2.099v5.731h-1.126
				V237.869L133.186,237.869z M134.312,243.191h2.389c0.591,0,1.071-0.074,1.441-0.223c0.369-0.148,0.656-0.33,0.861-0.546
				s0.344-0.448,0.418-0.7c0.074-0.25,0.11-0.478,0.11-0.682c0-0.205-0.036-0.434-0.11-0.684c-0.074-0.25-0.213-0.482-0.418-0.698
				s-0.492-0.398-0.861-0.546c-0.37-0.147-0.851-0.223-1.441-0.223h-2.389V243.191L134.312,243.191z"/>
			<path d="M151.712,245.323c0,0.647-0.074,1.269-0.222,1.858c-0.148,0.592-0.396,1.115-0.742,1.569
				c-0.348,0.455-0.802,0.819-1.365,1.092c-0.562,0.273-1.253,0.409-2.072,0.409c-0.818,0-1.51-0.136-2.072-0.409
				c-0.563-0.272-1.019-0.637-1.365-1.092c-0.347-0.454-0.594-0.978-0.742-1.569c-0.147-0.591-0.222-1.211-0.222-1.858v-7.454h1.126
				v7.164c0,0.433,0.04,0.894,0.119,1.382c0.08,0.489,0.236,0.944,0.47,1.365c0.232,0.421,0.562,0.768,0.989,1.04
				c0.427,0.272,0.992,0.408,1.697,0.408s1.271-0.136,1.697-0.408c0.427-0.272,0.756-0.619,0.989-1.04s0.39-0.876,0.47-1.365
				c0.079-0.488,0.119-0.949,0.119-1.382v-7.164h1.126V245.323z"/>
			<path d="M154.72,237.869h1.45l7.353,10.576h0.034v-10.576h1.126v12.076h-1.45l-7.353-10.575h-0.034v10.575h-1.126V237.869z"/>
			<path d="M167.765,237.869h3.736c1.046,0,1.933,0.128,2.661,0.384s1.333,0.583,1.816,0.979c0.483,0.398,0.864,0.84,1.143,1.322
				c0.279,0.483,0.483,0.946,0.614,1.391c0.131,0.443,0.214,0.845,0.248,1.203c0.033,0.357,0.051,0.61,0.051,0.759
				c0,0.147-0.019,0.401-0.051,0.76c-0.034,0.356-0.117,0.759-0.248,1.202c-0.131,0.443-0.335,0.906-0.614,1.391
				c-0.278,0.483-0.659,0.924-1.143,1.322c-0.483,0.396-1.089,0.725-1.816,0.98c-0.729,0.256-1.615,0.383-2.661,0.383h-3.736
				V237.869z M168.891,248.923h2.32c0.796,0,1.541-0.1,2.234-0.299c0.693-0.198,1.297-0.503,1.809-0.912
				c0.512-0.41,0.915-0.93,1.211-1.562c0.296-0.631,0.443-1.379,0.443-2.243s-0.147-1.611-0.443-2.243
				c-0.296-0.631-0.699-1.15-1.211-1.561c-0.512-0.41-1.115-0.715-1.809-0.914c-0.693-0.197-1.438-0.297-2.234-0.297h-2.32V248.923z
				"/>
			<path d="M183.676,237.869h1.16l5.083,12.076h-1.262l-1.313-3.206h-6.396l-1.364,3.206h-1.178L183.676,237.869z M184.204,239.098
				l-2.813,6.618h5.543L184.204,239.098z"/>
			<path d="M192.945,238.893h-4.129v-1.022h9.383v1.022h-4.129v11.055h-1.125V238.893z"/>
			<path d="M207.291,239.302h-0.018l-2.184,1.791l-0.632-0.784l2.985-2.438h0.869v12.077h-1.022L207.291,239.302L207.291,239.302z"
				/>
			<path d="M216.732,244.624h-0.033c-0.205,0.171-0.48,0.299-0.827,0.384c-0.349,0.085-0.669,0.128-0.964,0.128
				c-0.535,0-1.029-0.097-1.484-0.29s-0.848-0.457-1.177-0.793c-0.33-0.336-0.586-0.728-0.769-1.177s-0.272-0.937-0.272-1.459
				c0-0.546,0.101-1.049,0.299-1.51c0.198-0.462,0.476-0.855,0.827-1.187c0.352-0.33,0.771-0.589,1.254-0.775
				c0.482-0.188,1.01-0.281,1.578-0.281s1.094,0.094,1.577,0.281c0.483,0.187,0.901,0.445,1.254,0.775s0.629,0.725,0.828,1.187
				c0.198,0.461,0.298,0.964,0.298,1.51c0,0.317-0.034,0.62-0.104,0.903c-0.066,0.285-0.158,0.556-0.271,0.812
				c-0.114,0.257-0.236,0.497-0.367,0.726c-0.131,0.228-0.253,0.442-0.365,0.647l-3.275,5.44h-1.297L216.732,244.624z
				 M215.164,244.249c0.386,0,0.753-0.074,1.1-0.222c0.348-0.148,0.648-0.351,0.904-0.606s0.458-0.554,0.605-0.896
				c0.146-0.342,0.222-0.711,0.222-1.108c0-0.421-0.068-0.806-0.204-1.151c-0.137-0.347-0.33-0.646-0.58-0.896
				s-0.549-0.443-0.896-0.58c-0.348-0.138-0.73-0.205-1.15-0.205c-0.421,0-0.805,0.067-1.15,0.205
				c-0.349,0.137-0.646,0.33-0.896,0.58c-0.251,0.25-0.444,0.549-0.58,0.896c-0.137,0.348-0.205,0.73-0.205,1.151
				c0,0.397,0.074,0.769,0.223,1.108c0.146,0.342,0.35,0.64,0.604,0.896c0.256,0.257,0.555,0.458,0.896,0.606
				C214.396,244.175,214.766,244.249,215.164,244.249z"/>
			<path d="M220.395,248.752l4.537-4.793c0.204-0.205,0.409-0.424,0.614-0.657c0.204-0.231,0.39-0.478,0.554-0.733
				c0.166-0.254,0.299-0.524,0.401-0.811c0.103-0.283,0.153-0.591,0.153-0.921c0-0.705-0.229-1.257-0.684-1.653
				c-0.455-0.398-1.029-0.599-1.723-0.599c-0.626,0-1.154,0.183-1.587,0.546c-0.433,0.364-0.71,0.842-0.835,1.434l-1.194-0.119
				c0.193-0.932,0.619-1.629,1.279-2.09c0.659-0.461,1.455-0.69,2.388-0.69c0.467,0,0.91,0.071,1.331,0.213
				c0.421,0.144,0.79,0.345,1.108,0.606c0.318,0.261,0.57,0.582,0.76,0.963c0.188,0.382,0.281,0.816,0.281,1.306
				c0,0.466-0.071,0.897-0.215,1.296c-0.142,0.398-0.328,0.776-0.562,1.135c-0.233,0.359-0.501,0.696-0.802,1.016
				c-0.303,0.318-0.605,0.638-0.912,0.955l-3.771,3.873h6.346v0.921h-7.471v-1.196H220.395z"/>
			<path d="M236.173,238.79h-4.981l-0.051,3.838c0.262-0.137,0.547-0.228,0.855-0.272s0.609-0.067,0.906-0.067
				c0.582,0,1.104,0.104,1.565,0.315s0.855,0.498,1.181,0.86c0.326,0.364,0.576,0.788,0.754,1.271
				c0.177,0.483,0.265,0.998,0.265,1.543c0,0.648-0.116,1.219-0.351,1.707c-0.232,0.488-0.537,0.894-0.912,1.211
				c-0.375,0.318-0.79,0.558-1.245,0.717c-0.455,0.158-0.903,0.238-1.349,0.238c-0.887,0-1.629-0.183-2.226-0.545
				c-0.599-0.364-1.062-0.864-1.392-1.502l1.059-0.528c0.104,0.228,0.241,0.44,0.418,0.64c0.178,0.2,0.378,0.375,0.605,0.529
				c0.228,0.152,0.472,0.271,0.732,0.357c0.262,0.086,0.529,0.127,0.803,0.127c0.272,0,0.568-0.06,0.888-0.179
				c0.319-0.118,0.614-0.299,0.887-0.536c0.272-0.24,0.5-0.541,0.683-0.904c0.183-0.364,0.272-0.785,0.272-1.264
				c0-0.432-0.076-0.838-0.229-1.22c-0.153-0.381-0.367-0.713-0.641-0.998c-0.271-0.284-0.594-0.509-0.964-0.674
				c-0.369-0.164-0.771-0.247-1.202-0.247c-0.434,0-0.854,0.077-1.263,0.23c-0.409,0.152-0.784,0.35-1.126,0.588l0.102-6.157h5.955
				L236.173,238.79L236.173,238.79z"/>
		</g>
	</g>
	<g>
		<g>
			<g>
				<path fill="none" d="M105.614,214.551c-2.09,0.68-4.099,0.727-6.029,1.484c-1.043,0.408-1.694,1.288-0.997,2.506
					c0.66,1.148,1.541,1.289,2.57,0.439c2.867-2.36,5.839-1.527,8.846-0.316c1.1,0.443,2.346,0.596,3.362,1.168
					c2.095,1.178,3.849,0.893,5.759-0.489c2.182-1.575,4.863-1.944,7.281-0.987c5.07,2.008,9.656,1.468,14.072-1.608
					c2.589-1.804,5.234-1.638,7.189,0.771c2.311,2.849,5.543,2.356,7.646,1.232c2.798-1.495,4.963-1.367,7.516-0.219
					c0.729,0.328,1.607,1.238,2.254,0.042c0.481-0.892-0.084-1.735-0.771-2.373c-2.561-2.367-5.443-2.466-8.602-0.833
					c-2.295,1.188-4.25,1.253-6.503-0.436c-5.271-3.947-10.456-2.429-15.179,1.137c-2.043,1.543-3.648,1.807-5.434,0.007
					c-2.402-2.425-4.949-2.237-7.729-0.702c-1.426,0.79-3.086,1.177-4.463,2.025c-1.737,1.072-3.111,1.304-4.779-0.224
					C109.958,215.652,107.66,215.258,105.614,214.551z M222.355,210.025c-3.099,0.154-5.725,0.096-7.695,2.25
					c-0.947,1.035-2.688,1.985-1.204,3.668c1.388,1.574,2.549,0.44,3.769-0.596c2.998-2.548,6.243-3.193,9.861-1.107
					c2.045,1.176,4.309,1.391,6.387,0.033c2.781-1.814,5.531-1.269,7.984,0.322c1.656,1.074,2.645,0.967,4.314,0.008
					c3.953-2.267,5.422-1.998,8.646,0.971c1.105,1.018,2.086,1.465,2.738-0.139c1.289-3.17,3.656-2.459,6.002-1.875
					c2.068,0.516,3.766,1.713,5.335,3.137c0.756,0.682,1.72,1.563,2.724,0.611c1.119-1.062,0.504-2.244-0.4-3.121
					c-1.4-1.357-3.02-2.455-4.846-3.16c-6.225-2.414-12.654,0.283-18.967-0.283c-0.132-0.012-0.275,0.105-0.411,0.168
					c-2.261,1.05-4.442,1.229-6.845,0.143c-1.729-0.783-4.119-1.832-5.588-0.801c-3.211,2.251-6.004,1.393-9.07,0.137
					C224.16,210.009,223.036,210.105,222.355,210.025z M292.195,157.944c1.873-0.09,4.162-0.419,4.26-2.318
					c0.075-1.478-2.346-1.23-3.73-1.568c-0.711-0.171-1.42-0.431-2.143-0.486c-1.297-0.096-2.361,0.345-2.619,1.777
					c-0.292,1.622,0.889,1.979,2.092,2.24C290.771,157.745,291.505,157.833,292.195,157.944z"/>
				<path d="M118.765,166.622c0-0.009,0-0.02,0-0.03c-3.282,0-6.583,0.221-9.841-0.07c-2.561-0.229-3.512,0.976-4.059,3.084
					c-1.069,4.122-1.053,8.233-0.086,12.378c1.006,4.313,0.689,4.441-3.598,4.623c-6.64,0.281-14.555-1.056-20.752,2.344
					c-2.378,1.306-6.691,0.791-9.504,1.27c-3.025,0.516-3.604,2.19-6.5,3.528c-2.863,1.319-4.922,4.324-8.707,3.832
					c-0.928-0.121-4.692,1.703-4.324,3.153c0.299,1.177,3.861,1.334,4.985,1.283c2.388-0.101,4.727-0.483,7.081-0.92
					c3.728-0.688,7.579-2.092,10.987,1.113c1.042,0.979,2.235,0.229,3.351-0.193c2.66-1,5.393-1.729,8.186-2.271
					c1.834-0.354,3.688-0.494,5.117,0.794c3.137,2.824,5.906,1.891,8.67-0.5c3.85-3.33,8.602-2.843,12.059-0.637
					c3.078,1.965,4.766,1.486,7.427,0.076c5.444-2.887,11.097-1.898,14.922,2.449c0.994,1.129,1.584,2.105,2.94,1.459
					c2.682-1.279,5.49-3.105,8.274-4.156c1.999-0.75,4.396-1.318,6.064-0.12c4.126,2.962,7.771,2.603,11.669-0.284
					c0.996-0.738,2.541-0.768,3.852-1.039c1.244-0.259,2.564-0.076,3.202,1.053c1.987,3.51,4.317,2.41,7.046,0.979
					c2.652-1.396,6.283-2.9,8.333-0.39c5.377,6.592,1.521,4.697,10.051,0.717c1.082-0.506,2.102-1.17,3.217-1.562
					c2.805-0.986,5.5-1.234,7.859,1.21c1.812,1.875,3.922,2.375,6.52,1.336c1.621-0.649,3.484-0.784,5.261-0.938
					c4.826-0.416,9.813,0.979,14.472-1.459c0.904-0.476,2.069-0.045,3.033,0.408c2.334,1.094,4.523,0.59,6.913-0.104
					c3.759-1.097,7.671-2.955,11.478,0.093c0.636,0.51,1.414,0.251,2.127-0.033c2.859-1.148,5.557-0.6,8.16,0.813
					c1.849,0.998,3.525,0.75,5.515-0.015c3.608-1.387,7.285-2.422,10.912,0.619c1.95,1.633,4.518,2.088,7.126,0.76
					c2.136-1.088,4.673-1.135,6.386,0.377c2.289,2.022,4.353,1.345,6.576,0.479c0.897-0.349,5.485-0.09,4.295-1.43
					c-0.7-0.789-2.658-2.636-3.563-3.149c-4.66-2.654-8.439-7.248-14.584-6.693c-0.42,0.039-0.867-0.188-1.293-0.312
					c-10.191-2.931-20.475-5.049-31.195-4.333c-3.381,0.228-6.821,0.616-10.215-0.448c-1.521-0.477-1.938-0.927-1.959-2.713
					c-0.055-4.035,0.27-8.027,0.526-12.035c0.144-2.217-0.709-3.248-3.108-3.178c-4.619,0.134-9.254-0.093-13.871,0.079
					c-3.109,0.114-6.055-0.532-8.562-2.102c-4.955-3.101-10.527-4.109-16.059-5.043c-3.275-0.554-6.6-0.171-7.58-4.421
					c-0.104-0.446-0.816-0.908-1.338-1.073c-3.678-1.16-7.172-2.855-11.178-2.978c-8.619-0.264-16.835,1.195-24.556,5.093
					c-3.215,1.623-6.604,2.777-10.067,3.642c-4.911,1.229-9.903,2.134-14.329,4.82c-1.305,0.792-2.848,0.786-4.356,0.774
					C125.033,166.604,121.898,166.622,118.765,166.622z M262.91,150.564c2.189-0.061,5.297-0.924,6.293,1.016
					c1.275,2.485,0.83,5.731,0.412,8.663c-0.062,0.423-0.399,0.801-0.514,1.225c-0.293,1.078-2.963,1.576-1.062,3.08
					c1.483,1.172,5.705-0.313,6.063-2.01c0.459-2.173,0.568-4.423,0.771-6.646c0.197-2.129,0.639-3.904,3.105-1.774
					c1.047,0.907,1.787,0.794,2.691,0.021c1.346-1.15,2.76-1.142,4.021,0.014c0.881,0.807,0.496,1.856,0.211,2.915
					c-0.459,1.694,0.216,2.033-3.478,2.044c-0.44,0.001-0.901-0.135-1.334-0.068c-0.875,0.135-1.487,0.316-1.264,1.478
					c0.233,1.206,0.735,0.828,1.649,0.636c3.789-0.8,4.047-1.011,4.323,2.721c0.117,1.579,0.944,2.204,2.343,1.278
					c0.295-0.195,0.188-1.142,0.188-2.175c0-0.929-0.312-1.16,0.075-2.087c0.431-1.03,3.748-0.438,4.871,0
					c0.832,0.324,1.744-0.218,2.556,0.144c1.153,0.515,1.272,0.676,0.59,2.38c-1.571,3.926-2.937,2.19,1.138,3.215
					c1.782,0.447,3.861,0.018,4.491,2.716c0.659,2.821,2.209,5.47,0.034,8.318c-1.727,2.257-1.423,4.794-0.279,7.161
					c1.104,2.28,3.346,2.037,5.195,1.958c5.087-0.221,10.07,0.911,15.146,1.104c4.244,0.159,8.074-1.552,12.271-1.343
					c4.621,0.231,14.071,0.613,18.648,1.213c0.847,0.109,2.588,0.585,2.459,1.058c-0.137,0.492-1.922,0.707-2.65,0.707
					c-3.133-0.002-11.123,0-13.555,0c-8.104-0.992-15.43,1.91-22.874,0.25c-0.915-0.203-2.048,0.334-3.017,0.69
					c-0.451,0.166-1.315,0.931-0.633,1.267c3.415,1.685,0.564,2.233-0.31,3.599c-1.828,2.854-0.358,5.729,0.938,8.413
					c0.402,0.834,2.062,1.324,1.032,2.484c-0.94,1.062-2.481,0.473-3.29-0.205c-2.799-2.347-5.602-2.23-8.668-0.709
					c-6.553,3.252-3.38,1.627-7.957-0.575c-1.773-0.854-3.509-1.341-5.553-0.429c-2.426,1.078-4.904,0.771-7.293-0.562
					c-3.41-1.901-6.793-1.827-10.022,0.537c-1.933,1.414-3.711,1.771-5.333-0.565c-0.889-1.281-2.574-1.395-3.885-2.064
					c-1.584-0.814-2.959-0.514-3.676,1.21c-0.49,1.181-1.276,1.966-2.344,2.573c-1.709,0.975-2.937,1.064-3.801-1.187
					c-1.397-3.644-3.468-4.338-7.105-2.569c-1.467,0.713-3.057,2.523-4.34,2.016c-3.758-1.488-6.812-0.965-10.459,0.712
					c-2.195,1.009-5.394,0.038-8.207-0.767c-3.404-0.974-6.941,0.211-9.812,2.504c-1.281,1.024-2.062,1.597-2.918-0.451
					c-0.99-2.363-3.673-1.521-5.424-1.963c-3.217-0.814-6.764-0.75-9.969,0.986c-1.023,0.555-2.331,0.596-3.332,1.18
					c-2.277,1.328-3.112-0.036-4.129-1.743c-1.799-3.019-3.926-3.496-7.023-1.826c-1.05,0.565-2.066,1.19-3.112,1.757
					c-2.187,1.18-4.091,1.361-5.626-1.152c-1.412-2.31-3.443-2.561-5.779-1.259c-1.168,0.65-2.544,0.964-3.621,1.718
					c-2.564,1.795-4.395,1.859-7.421-0.074c-3.334-2.131-7.804-1.094-11.438,0.914c-6.173,3.41-6.575,3.449-11.493-1.184
					c-2.256-2.123-5.057-2.369-7.449-0.957c-5.12,3.025-9.768,3.362-14.58-0.574c-1.986-1.623-4.152-0.127-5.74,1.07
					c-4.312,3.25-8.264,4.502-13.313,0.939c-3.185-2.245-6.909-0.195-10.144,1.434c-2.285,1.15-3.982,2.162-6.58-0.416
					c-2.072-2.057-5.8-1.939-8.869-0.555c-1.495,0.675-2.92,1.514-4.439,2.121c-1.389,0.556-3.32,1.259-4.291,0.277
					c-3.396-3.435-7.201-1.734-10.881-1.295c-2.582,0.31-5.059,0.497-7.32-1.043c-0.746-0.507-1.463-1.146-1.308-2.162
					c0.155-1.007,1.005-1.621,1.88-1.654c6.811-0.254,11.643-5.9,18.332-6.654c1.51-0.17,5.226-1.045,4.039-3.158
					c-0.583-1.037-3.348-1.98-5.453-1.929c-0.299,0.007-0.674-0.073-0.881,0.075c-4.553,3.223-9.887,1.826-14.859,2.557
					c-1.051,0.154-2.422,0.562-3.03-0.118c-2.149-2.401-4.844-1.649-7.374-1.56c-2.535,0.092-4.951,0.154-7.281-1.17
					c-1.309-0.744-4.764,0.643-8.005-0.484c-5.421-1.884-5.802-0.477-8.257,0.037c-0.724,0.15-1.434,0.428-2.165,0.521
					c-1.03,0.129-1.774-0.416-1.971-1.395c-0.206-1.025,0.464-1.43,1.373-1.443c5.187-0.08,2.438-2.73,7.346-0.682
					c5.185,2.162,1.86,0.139,6.788,0.738c3.607,0.436,1.906,0.055,1.687-2.001c-0.712-6.613,3.48-2.808,2.582-6.986
					c-0.024-0.115-0.126-0.263-0.198-0.392c-0.639-1.127-3.21-1.211-2.439-2.658c0.734-1.373,2.283,0.578,3.596,0.571
					c1.42-0.007,2.174-0.767,2.799-1.854c3.1-5.388,7.776-9.759,9.939-15.781c0.902-2.514,3.578,3.467,3.674,1.827
					c0.085-1.434-0.326-4.436,1.432-4.645c0.896-0.108,1.271,1.075,1.242,1.856c-0.24,6.644-1.793,4.317,5.021,15.458
					c0.943,1.543,0.994,2.136,0.994,3.401c0,2.109-0.707,0.262-1.096-0.549c-0.773-1.609-0.759-1.927-2.067-4.386
					c-0.798-1.5-2.185-4.67-2.784-4.344c-0.268,0.145-0.812,5.066-0.848,5.713c-0.16,2.678-0.27,5.36-0.334,8.041
					c-0.074,3.026-0.035,3.126,3.229,2.272c2.418-0.631,3.566-1.272,5.293-2.782c0.43-0.377-0.084-4.471,0.446-3.585
					c2.743,4.577,3.182,4.24,6.716,4.266c1.563,0.01,0.676,1.959,0.18,3.118c-1.314,3.076-1.223,3.485,0.704,4.263
					c1.761,0.709,4.151,0.713,6.052,0.713c2.91,0,5.948,0.246,7.477,0c4.539-0.737,4.789-0.741,9.521-0.689
					c1.566,0.018,2.099-1.341,2.255-2.843c0.248-2.378,0.149-4.728,0.003-7.11c-0.133-2.211-0.521-2.562-2.062-0.844
					c-0.719,0.801-1.609,1.608-2.641,0.619c-0.987-0.944-0.297-2.065,0.357-2.792c3.293-3.665,6.33-7.527,9.236-11.498
					c0.707-0.963,1.562-1.077,2.74-0.878c1.75,0.296,3.586,0.091,5.333,0.4c5.603,1,8.891-2.199,12.243-6.024
					c2.783-3.178,2.786-4.148,5.65-3.985c4.883,0.274,3.219-0.972,6.344-5.851c3.893-6.07,4.939-6.031,7.894-4.966
					c4.276,1.544,3.739,0.487,4.008-1.886c0.136-1.216,0.415-1.789,1.938-1.835c1.391-0.044,2.175,0.255,2.391,1.518
					c0.41,2.389-1.625,3.907,4.414,2.943c1.889-0.3,3.212-0.478,4.45,1.119c3.375,4.347,3.702,4.8,6.267-0.928
					c1.143-2.552,1.834-2.48,3.553-0.399c4.721,5.709,2.986,5.037,8.427,0.859c1.894-1.451,4.869-3.4,6.449-5.082
					c2.321-2.474,2.071-1.954,4.555-0.506c1.804,1.051,2.635,1.256,4.089-0.866c4.094-4.449,3.588-4.872,7.527,0.386
					c5.847,9.5,7.277,4.877,8.664,3.608c1.485-1.357,1.74-1.357,4.965,3.172c1.296,1.818,2.632,3.5,4.673,4.666
					c2.229,1.271,2.55,2.131,4.413-0.618c0.996-1.47,2.369-2.676,3.52-4.048c1.291-1.546,1.627-1.797,3.609,0.123
					c1.143,1.108,2.061,2.121,3.197,3.046c2.348,1.908,0.92,1.753,3.354,0.23c1.228-0.766,1.345-2.59,1.484-3.578
					c0.124-0.871,0.106-1.935,1.323-1.954c1.07-0.017,1.42,0.929,1.773,1.759c0.059,0.137,0.15,0.288,0.137,0.423
					c-0.488,4.618,3.482,4.681,7.717,4.822c1.644,0.055,2.736,1.073,2.859,3.266c0.285,5.053-0.463,4.946,3.949,1.575
					c0.711-0.542,1.277-1.29,2.031-1.746c7.697-4.677,4.297-6.631,10.701-1.737C256.564,152.388,255.414,150.775,262.91,150.564z
					 M261.068,147.046c2.215-4.131,3.734-6.706,7.979-8.523c2.674-1.145,3.727,1.951,5.676-3.548
					c1.029-3.647,5.814-6.604,10.123-7.812c0.971-0.272,3.071-0.847,3.166,0.148c0.061,0.635-1.365,0.986-2.248,1.413
					c-4.236,2.049-7.783,5.245-9.494,9.839c-0.893,2.398-0.631,3.35-3.934,2.727c-2.686-0.506-6.1,2.33-7.908,4.377
					c-0.787,0.891-1.49,1.855-2.236,2.782C259.957,151.232,260.424,148.248,261.068,147.046z M258.988,161.171
					c-0.332-0.585-0.623-1.285-1.074-1.858c-1.283-1.634-2.559-3.284-3.969-4.81c-4.127-4.468-3.453-4.75-7.623-0.391
					c-4.979,5.206-4.602,4.833-8.36,5.037c-2.894,0.157-6.653,0.315-10.003-0.162c-5.167-0.738-5.451,0.355-4.514,2.498
					c1.494,3.934,0.507,2.7,3.744,2.829c0.593,0.023,1.188-0.021,1.781-0.062c4.573-0.317,9.146-0.69,13.725-0.945
					c2.346-0.131,4.783-0.546,6.928,0.88c1.449,0.962,2.703,1.533,4.406,0.236c1.367-1.042,3.129-1.562,4.688-2.367
					C258.891,161.97,258.883,161.542,258.988,161.171z M100.678,179.973c-0.131-0.877,0.047-2.022-0.443-2.579
					c-2.949-3.325-5.277-7.073-7.767-10.719c-0.741-1.086-2.918-0.829-3.7,0.228c-4.682,6.328-5.724,4.953-5.316,15.185
					c0.152,3.789-1.822,4.549,5.881,2.562c2.732-0.705,6.357-1.045,9.18-1.043C100.938,183.609,100.758,182.1,100.678,179.973z
					 M290.154,179.381c0.082-0.886,0.188-1.772,0.24-2.662c0.307-5.204-2.84-7.385-7.516-5.196
					c-1.208,0.566-2.339,1.308-3.566,1.816c-1.738,0.719-2.523,1.869-2.346,3.784c0.122,1.324,0.094,2.678-0.029,4.004
					c-0.181,1.968,0.476,3.107,2.578,3.284c0.877,0.069,1.735,0.389,2.592,0.629C289.881,187.229,289.88,187.229,290.154,179.381z
					 M37.281,165.286c-0.094-1.178,0.615-2.93,0.121-3.99c-2.109-4.516-2.049-2.644-3.012-1.386
					c-2.873,3.757-6.41,8.575-9.068,12.483c-1.555,2.288,0.407,2.406,2.579,2.63c0.737,0.075,1.483,0.033,2.222,0.092
					c0.748,0.061,1.695,0.187,1.798,0.995c0.128,0.982-0.929,0.933-1.564,1.005c-1.938,0.224-2.589,1.25-2.063,3.059
					c0.566,1.94,1.702,3.16,3.907,2.619c4.075-0.998,4.07,0.582,3.976-2.516C36.014,175.046,37.174,170.296,37.281,165.286z
					 M258.41,182.552c6.783-0.239,5.393,1.015,5.24-5.881c-0.082-3.778-0.336-3.524,0.775-4.505
					c1.069-0.944,1.646-1.621,0.631-2.863c-2.798-3.413-2.779-3.618-4.695-2.527c-4.988,2.847-5.359,2.38-6.034,5.284
					c-0.421,1.804-1.226,6.295-0.126,9.391C254.984,183.67,257.041,182.205,258.41,182.552z M211.389,146.149
					c-0.98,0.033-2.188,1.804-2.656,2.405c-1.56,2.002-3.192,3.808-4.738,5.823c-1.02,1.327-2.854,3.288-2.854,3.288
					s2.49,0.28,4.809,0.76c2.797,0.577,5.086,1.038,7.853,1.539c1.537,0.279,6.755,3.719,6.32,1.838
					C219.107,157.413,213.549,147.274,211.389,146.149z M145.183,158.415c0.992-0.299,4.317-1.125,4.411-2.225
					c-0.217-2.439-3.881-3.374-6.029-4.927c-3.393-2.452-9.551-1.39-11.029,2.49c-0.773,2.027,2.83,7.083,4.9,6.682 M179.48,148.92
					c0.76-0.338,2.354,0.916,2.94-0.351c0.661-1.426-0.88-2.309-1.86-3.171c-2.144-1.881-4.793-2.846-7.254-4.172
					c-3.425-1.844-2.395-2.636-5.622-0.285c-1.679,1.223-3.567,2.139-4.548,4.117c-0.289,0.586-0.339,1.152,0.059,1.665
					c0.947,1.226,1.213,3.249,3.334,3.155c3.704-0.163,2.815,0.123,3.154-3c0.15-1.413,1.158-2.407,2.814-2.198
					c1.008,0.126,2.444,0.082,2.389,1.428C174.699,150.669,174.977,148.719,179.48,148.92z M124.803,151.961
					c0.808-0.098,5.493,0.937,4.844-1.116c-0.757-2.404-2.392-4.791-3.699-6.52c-2.586-3.423-2.021-1.965-5.286,2.114
					c-1.151,1.439-2.804,4.331-2.474,4.941c0.363,0.674,2.88,0.176,4.545,0.566C123.156,152.045,123.621,151.961,124.803,151.961z
					 M110.754,163.394c6.912,0.055,5.941,1.045,4.891-3.57c-0.428-1.871-2.494-5.828-3.002-6.165
					c-0.937-0.625-8.521,7.93-8.016,8.52C105.732,163.466,108.002,163.192,110.754,163.394z M45.799,188.217
					c1.672,0.02,5.002-1.037,5.68-2.753c0.927-2.341,2.279-3.207-5.101-1.682c-3.052,0.632-6.208,0.612-9.294,1.062
					c-0.818,0.118-6.697,0.281-4.754,1.379c0.768,0.435,4.242,1.328,4.986,1.398C40.103,187.889,42.971,186.682,45.799,188.217z
					 M273.924,174.37c0.422-3.218,1.637-2.645-1.648-2.665c-2.768-0.017-2.325,0.664-2.041,3.069
					c0.275,2.333,0.424,4.684,0.617,7.027c0.076,0.912,0.203,1.891,1.344,1.906c1.097,0.018,1.261,0.301,1.408-0.616
					C273.91,181.205,273.848,174.948,273.924,174.37z M197.548,149.143c-4.218-0.085-4.206,1.323-4.339,2.068
					c-0.082,0.454,5.6,5.542,5.99,5.062c1.516-1.854,2.438-2.777,3.21-4.19C203.421,150.226,198.654,149.445,197.548,149.143z
					 M279.822,165.311c-1.406,0-1.682,0.105-2.166,2.521c-0.49,2.454,0.174,2.995,1.855,1.519c0.953-0.838,1.278-1.711,2.18-2.503
					C282.169,166.428,282.907,165.882,279.822,165.311z M250.543,179.734c-0.038-2.924,1.322-9.167,0.834-8.402
					c-1.771,2.784-3.604,7.018-3.57,8.729c0.023,1.082,0.334,2.293,1.66,2.147C250.865,182.055,250.625,180.764,250.543,179.734z
					 M301.182,190.266c-0.623,0.064-3.045-0.686-3.149,0c-0.185,1.226,4.636,3.693,6.34,3.703c0.59,0.006,1.147-0.188,1.254-0.893
					C305.752,192.239,302.295,190.277,301.182,190.266z M296.211,179.578c0.385,0.093,0.53-0.406,0.576-0.818
					c0.088-0.818-1.514-4.25-2.311-4.445c-0.651-0.161,0.059,3.017,0.143,3.73C294.707,178.803,295.073,179.439,296.211,179.578z
					 M249.121,168.539c0.012-0.776-0.525-1.041-1.129-0.941c-0.553,0.09-1.156,0.373-1.221,1.073
					c-0.06,0.632-0.338,6.47,0.049,5.825C247.58,173.231,248.969,169.354,249.121,168.539z M221.285,150.327
					c-1.858-0.597-1.547,0.304-1.619,1.437c-0.018,0.296,1.359,4.003,1.659,4.1c0.94,0.293,1.017-4.192,1.149-5.124
					C222.514,150.486,222.139,150.561,221.285,150.327z"/>
				<path d="M105.614,214.551c2.046,0.707,4.344,1.104,6.011,2.625c1.668,1.526,3.042,1.295,4.779,0.223
					c1.377-0.849,3.037-1.234,4.463-2.024c2.779-1.535,5.326-1.722,7.729,0.702c1.785,1.8,3.391,1.535,5.434-0.008
					c4.723-3.563,9.907-5.082,15.179-1.135c2.253,1.688,4.208,1.621,6.503,0.435c3.158-1.632,6.041-1.027,8.602,1.339
					c0.688,0.636,1.253,0.977,0.771,1.867c-0.646,1.195-1.525,0.287-2.254-0.042c-2.553-1.148-4.718-1.276-7.516,0.219
					c-2.104,1.124-5.336,1.615-7.646-1.231c-1.955-2.41-4.601-2.574-7.189-0.771c-4.416,3.076-9.002,3.617-14.072,1.609
					c-2.418-0.957-5.1-0.588-7.281,0.986c-1.91,1.383-3.664,1.667-5.759,0.489c-1.017-0.572-2.263-0.726-3.362-1.168
					c-3.007-1.211-5.979-2.044-8.846,0.315c-1.029,0.851-1.91,0.709-2.57-0.438c-0.697-1.218-0.046-2.097,0.997-2.506
					C101.516,215.277,103.524,215.229,105.614,214.551z"/>
				<path d="M222.355,210.025c0.681,0.08,1.805-0.018,2.733,0.363c3.065,1.258,5.859,2.115,9.07-0.136
					c1.469-1.032,3.858,0.019,5.588,0.802c2.401,1.086,4.584,0.906,6.845-0.144c0.137-0.062,0.279-0.181,0.411-0.168
					c6.312,0.567,12.742-1.623,18.968,0.789c1.825,0.707,3.443,1.803,4.844,3.159c0.906,0.879,1.521,1.556,0.401,2.615
					c-1.004,0.953-1.968,0.07-2.724-0.611c-1.569-1.424-3.268-2.62-5.335-3.137c-2.345-0.584-4.714-1.295-6.003,1.875
					c-0.651,1.604-1.633,1.156-2.737,0.14c-3.226-2.97-4.692-3.236-8.646-0.972c-1.672,0.959-2.66,1.067-4.315-0.006
					c-2.453-1.592-5.203-2.139-7.983-0.322c-2.08,1.355-4.343,1.142-6.388-0.034c-3.618-2.087-6.862-1.439-9.86,1.106
					c-1.221,1.037-2.382,2.172-3.77,0.598c-1.482-1.684,0.257-2.129,1.204-3.163C216.632,210.629,219.258,210.18,222.355,210.025z"
					/>
				<path d="M70.95,161.296c-1.271-0.188-0.679-1.289-0.646-2.285c0.086-2.59,2.154-4.792,4.389-5.558
					c5.895-2.017,3.87,0.414,6.291-6.29c1.316-3.651,3.699-3.064,7.046-3.843c1.168-0.271,2.692-0.444,2.692,0.447
					c0.002,0.807-0.768,1.126-2.014,1.364c-5.854,1.117-5.313,4.211-6.682,8.46c-0.167,0.519-0.609,1.162-1.076,1.335
					c-3.164,1.188-7.869,1.086-9.072,4.129C71.618,159.714,71.826,161.068,70.95,161.296z"/>
				<path d="M291.5,158.795c-0.689-0.113-1.424-0.2-2.143-0.355c-2.271-0.493-2.744,1.383-2.09-2.24
					c0.258-1.432,1.321-1.874,2.617-1.777c0.723,0.054,1.432,0.313,2.145,0.486c1.385,0.337,3.805,0.089,3.729,1.567
					C295.548,160.627,295.486,158.603,291.5,158.795z"/>
				<path fill="none" d="M290.154,179.381c-0.274,7.85-0.273,7.848-8.047,5.66c-0.855-0.24-1.715-0.559-2.592-0.629
					c-2.104-0.176-2.759-1.316-2.578-3.284c0.123-1.326,0.151-2.681,0.029-4.004c-0.179-1.915,0.605-3.065,2.346-3.784
					c1.229-0.509,2.358-1.25,3.566-1.816c4.675-2.189,7.821-0.008,7.516,5.196C290.343,177.608,290.236,178.495,290.154,179.381z"/>
				<path fill="none" d="M179.412,159.672c-0.051,0.247-0.1,0.495-0.148,0.741c-0.154-0.111-0.309-0.223-0.461-0.335
					c0.234-0.107,0.467-0.215,0.7-0.322L179.412,159.672z"/>
			</g>
			<path d="M154.768,156.396c0,0,0.12,17.599,2.024,18.527c1.903,0.931,0.75-13.749,1.827-15.651
				c1.08-1.904,1.595-3.916,1.595-3.916L154.768,156.396z"/>
			<path d="M193.992,156.351l1.326,19.288c0,0,0.885,5.809,1.557-2.15c0.675-7.957,0.115-13.314,3.711-12.759
				c3.596,0.556,0.004-2.842,0.004-2.842L193.992,156.351z"/>
			<path d="M242.15,187.555h-15.088c0,0-5.81-1.104,2.149-1.779c7.958-0.67,14.207-0.121,13.649-3.715
				c-0.555-3.594,2.699,4.375,2.699,4.375L242.15,187.555z"/>
			<path d="M152.107,190.139c0,0-21.696-0.703-23.137-1.535c-0.907-0.524,3.037-1.354,9.938-1.146
				c6.899,0.21,13.632,1.087,14.122-1.007c0.714-3.062,1.91,3.771,1.91,3.771L152.107,190.139z"/>
			<path d="M103.861,186.384c0,0,8.058,1.991,12.086,2.274c4.402,0.309,11.426,0.646,11.2-0.541
				c-0.224-1.189-14.138-0.928-19.776-3.417C100.87,181.828,103.861,186.384,103.861,186.384z"/>
			<path d="M204.752,187.842c0,0,5.684,1.244,8.568,1.211c2.887-0.035,7.174-1.104,7.004-1.955
				c-0.168-0.846-8.438,1.277-13.15-0.623C202.463,184.572,204.752,187.842,204.752,187.842z"/>
		</g>
		<path d="M162.963,173.837c0,0,11.713-4.537,13.752-4.571c2.037-0.035,13.369,4.19,14.516,4.571
			c1.146,0.382,0.256,2.795-1.655,1.937c-1.91-0.858-10.694-3.72-12.859-3.625c-2.165,0.096-11.205,2.26-12.352,2.832
			C163.218,175.555,161.055,174.505,162.963,173.837z"/>
		<path d="M151.111,186.391c0,0,1.52-4.555,3.543-4.555c2.024,0,4.049,2.191,4.049,2.191s1.351-1.012,2.363-0.334
			c1.012,0.673,2.361,2.19,2.361,2.19s1.013-1.013,1.857,0c0.844,1.013-1.014,2.869-2.7,2.363s-4.724-0.507-6.413-0.17
			C154.484,188.416,149.594,188.248,151.111,186.391z"/>
		<path d="M147.062,188.922c0,0,1.518-4.556,3.543-4.556s4.049,2.192,4.049,2.192s1.35-1.013,2.361-0.336
			c1.014,0.674,2.49,1.496,2.49,1.496s2.13-0.949,2.973,0.063c0.844,1.013,0.191,3.544-3.226,2.973
			c-1.737-0.289-5.44-0.485-7.13-0.146C150.438,190.945,145.544,190.779,147.062,188.922z"/>
		<path d="M195.148,190.945c0,0,1.52-4.555,3.545-4.555c2.022,0,4.048,2.193,4.048,2.193s1.351-1.014,2.362-0.337
			c1.012,0.674,2.362,2.192,2.362,2.192s1.015-1.013,1.854,0c0.845,1.013-1.014,2.869-2.7,2.363c-1.687-0.508-4.724-0.51-6.409-0.17
			C198.523,192.971,193.631,192.805,195.148,190.945z"/>
		<path d="M199.199,189.43c0,0,1.518-4.558,3.542-4.558s4.05,2.194,4.05,2.194s1.35-1.014,2.361-0.338
			c1.014,0.674,2.363,2.192,2.363,2.192s1.014-1.012,1.856,0c0.842,1.013-1.015,2.87-2.701,2.363
			c-1.688-0.507-4.723-0.507-6.41-0.17C202.574,191.453,197.682,191.285,199.199,189.43z"/>
		<path d="M199.494,181.836c-1.967,0.491-3.544,1.898-3.544,1.898s-1.644-0.887-2.656-0.506c-1.013,0.379-1.897,1.896-1.897,1.896
			s-1.393,0-0.887,1.142c0.506,1.137,2.402,0.504,3.542,0.504s3.798-0.633,5.062-0.756c1.266-0.13,2.151-0.89,2.278-1.647
			C201.52,183.607,200.506,181.584,199.494,181.836z"/>
		<path d="M154.95,189.809c-2.016-0.226-6.358,0.564-6.358,0.564s-1.23-1.404-2.312-1.4c-1.08,0-2.441,1.115-2.441,1.115
			s-1.307-0.484-1.227,0.758c0.076,1.244,2.076,1.313,3.143,1.711c1.066,0.396,3.779,0.732,5.009,1.055
			c1.229,0.322,5.132-0.731,5.517-1.399C156.663,191.545,155.988,189.926,154.95,189.809z"/>
		<path d="M202.531,183.354c-1.969,0.494-3.543,1.899-3.543,1.899s-1.646-0.887-2.658-0.507c-1.012,0.379-1.896,1.898-1.896,1.898
			s-1.393,0-0.887,1.139c0.505,1.139,2.403,0.506,3.543,0.506c1.139,0,3.797-0.633,5.062-0.76s2.149-0.885,2.277-1.646
			C204.557,185.124,203.544,183.102,202.531,183.354z"/>
		<path d="M165.063,189.418c-0.56,0.543-0.605,1.93,0.153,1.918c0.76-0.011,15.688-0.47,17.841-0.38
			c2.152,0.088,7.09,0.138,7.209-0.345c0.118-0.483-0.781-1.549-1.918-1.295C187.212,189.574,165.688,188.807,165.063,189.418z"/>
		<path d="M162.386,192.824c-0.69,0.591-0.772,1.419,0.153,1.419c0.924,0,19.1-0.267,21.719-0.134
			c2.619,0.134,8.627,0.264,8.779-0.267c0.154-0.526-0.924-1.717-2.311-1.45C189.341,192.656,163.154,192.164,162.386,192.824z"/>
		<path d="M166.268,186.916c-0.459,0.457-0.512,1.634,0.104,1.634c0.613,0,12.712-0.204,14.455-0.103
			c1.741,0.103,7.039,0.203,7.142-0.205c0.104-0.406-0.613-2.02-1.537-1.816C185.51,186.63,166.781,186.406,166.268,186.916z"/>
		<path d="M171.984,175.314c0.332-0.656,5.8-0.938,6.846-0.625c1.045,0.312,2.377,0,2.757,0.103
			c0.38,0.106,1.046,9.978,0.095,10.706c-0.951,0.73-4.47,0.191-5.229,0.297c-0.762,0.104-4.006-0.402-4.386-0.818
			C171.688,184.561,171.51,176.253,171.984,175.314z"/>
		<path d="M202.596,175.409c0.147-0.337,2.584-0.479,3.053-0.319c0.466,0.16,1.061,0,1.229,0.053c0.17,0.053,0.465,4.587,0.041,4.96
			c-0.423,0.371-1.992-0.16-2.33-0.106c-0.34,0.053-1.526,0.053-1.696-0.16C202.723,179.621,202.384,175.889,202.596,175.409z"/>
		<path d="M167.148,162.801c-0.247,0.206-0.354,3.08-0.236,3.727c0.119,0.646,0,1.47,0.041,1.704
			c0.037,0.236,3.373,0.646,3.647,0.059s-0.116-2.763-0.079-3.232c0.041-0.47,0.041-2.117-0.117-2.352
			C170.248,162.473,167.5,162.508,167.148,162.801z"/>
		<path d="M175.083,162.673c0.126-0.412,1.677-0.396,2.12-0.396c0.666,0,1.389,0.003,1.533,0.069
			c0.146,0.065,0.397,5.119,0.037,5.578c-0.361,0.458-1.702,0.311-1.99,0.375c-0.289,0.065-1.301,0.065-1.447-0.197
			C175.191,167.841,174.902,163.261,175.083,162.673z"/>
		<path d="M183.292,162.673c0.126-0.412,0.985-0.54,1.384-0.345c0.398,0.198,1.691-0.203,2.305,0.206
			c0.134,0.089,0.361,5.07,0,5.528c-0.362,0.458-1.696,0.172-1.987,0.237c-0.289,0.065-1.302,0.065-1.446-0.197
			C183.4,167.841,183.111,163.261,183.292,162.673z"/>
		<path d="M214.984,175.915c0.125-0.336,1.772-0.173,2.557-0.319c0.415-0.079,0.887,0,1.029,0.052
			c0.142,0.055,0.537,4.844,0.035,4.961c-0.478,0.108-0.812-0.226-1.951-0.107c-0.289,0.03-1.279,0.053-1.42-0.16
			C215.093,180.128,214.811,176.395,214.984,175.915z"/>
		<path d="M224.922,180.357c-0.123,0.334-2.165,0.479-2.554,0.317c-0.39-0.159-0.888,0-1.029-0.053
			c-0.144-0.054-0.392-4.587-0.036-4.96s1.668,0.161,1.951,0.108c0.285-0.054,1.278-0.054,1.42,0.158
			C224.814,176.144,225.1,179.877,224.922,180.357z"/>
		<path d="M143.172,180.497c0.332-0.196,0.477-3.421,0.318-4.038c-0.159-0.617,0-1.402-0.055-1.626
			c-0.052-0.224-4.529-0.617-4.898-0.056c-0.368,0.561,0.158,2.635,0.106,3.084c-0.054,0.45-0.054,2.018,0.158,2.245
			C139.012,180.328,142.699,180.775,143.172,180.497z"/>
		<path d="M133.65,174.396c-0.115-0.336-1.998-0.48-2.355-0.32c-0.361,0.16-0.818,0-0.949,0.053
			c-0.133,0.055-0.36,6.612-0.032,6.986c0.325,0.373,1.537-0.16,1.798-0.108c0.264,0.054,1.178,0.054,1.311-0.159
			C133.551,180.635,133.812,174.875,133.65,174.396z"/>
	</g>
</g>
</svg>
